<svg width="24" height="24" viewBox="0 0 24 24" fill="none" xmlns="http://www.w3.org/2000/svg">
<path fill-rule="evenodd" clip-rule="evenodd" d="M14.4468 3.02603C14.5419 3.05186 14.631 3.09618 14.709 3.15646C14.7869 3.21674 14.8522 3.29179 14.9012 3.37732C14.9501 3.46285 14.9817 3.55719 14.9942 3.65495C15.0067 3.7527 14.9997 3.85195 14.9738 3.94703L10.4738 20.447C10.4216 20.639 10.2952 20.8024 10.1225 20.9013C9.94975 21.0001 9.74485 21.0263 9.55283 20.974C9.36081 20.9218 9.19741 20.7954 9.09858 20.6227C8.99975 20.45 8.97358 20.245 9.02583 20.053L13.5258 3.55303C13.5517 3.45793 13.596 3.36885 13.6563 3.29089C13.7165 3.21293 13.7916 3.14761 13.8771 3.09867C13.9626 3.04973 14.057 3.01812 14.1547 3.00566C14.2525 2.99319 14.3518 3.00012 14.4468 3.02603ZM16.7198 6.22003C16.8605 6.07958 17.0511 6.00069 17.2498 6.00069C17.4486 6.00069 17.6392 6.07958 17.7798 6.22003L23.0298 11.47C23.1703 11.6107 23.2492 11.8013 23.2492 12C23.2492 12.1988 23.1703 12.3894 23.0298 12.53L17.7798 17.78C17.7112 17.8537 17.6284 17.9128 17.5364 17.9538C17.4444 17.9948 17.3451 18.0168 17.2444 18.0186C17.1436 18.0204 17.0436 18.0019 16.9502 17.9642C16.8568 17.9264 16.772 17.8703 16.7008 17.7991C16.6296 17.7278 16.5734 17.643 16.5357 17.5496C16.498 17.4562 16.4795 17.3562 16.4812 17.2555C16.483 17.1548 16.5051 17.0555 16.546 16.9635C16.587 16.8715 16.6461 16.7887 16.7198 16.72L21.4398 12L16.7198 7.28003C16.5794 7.13941 16.5005 6.94878 16.5005 6.75003C16.5005 6.55128 16.5794 6.36066 16.7198 6.22003ZM7.27983 6.22003C7.42028 6.36066 7.49917 6.55128 7.49917 6.75003C7.49917 6.94878 7.42028 7.13941 7.27983 7.28003L2.55983 12L7.27983 16.72C7.41231 16.8622 7.48443 17.0503 7.481 17.2446C7.47758 17.4389 7.39886 17.6242 7.26145 17.7617C7.12404 17.8991 6.93865 17.9778 6.74435 17.9812C6.55005 17.9846 6.362 17.9125 6.21983 17.78L0.969828 12.53C0.829378 12.3894 0.750488 12.1988 0.750488 12C0.750488 11.8013 0.829378 11.6107 0.969828 11.47L6.21983 6.22003C6.36045 6.07958 6.55108 6.00069 6.74983 6.00069C6.94858 6.00069 7.1392 6.07958 7.27983 6.22003Z" fill="black"/>
</svg>
