<svg width="722" height="722" viewBox="0 0 722 722" fill="none" xmlns="http://www.w3.org/2000/svg">
<path d="M403.05 407.294C379.619 383.862 341.629 383.862 318.198 407.294L275.771 449.72C228.908 496.583 228.908 572.563 275.771 619.426L326.683 670.337C360.624 704.278 360.624 721.249 360.624 721.249C360.624 721.249 360.624 704.278 394.565 670.337L445.477 619.426C492.34 572.563 492.34 496.583 445.477 449.72L403.05 407.294Z" fill="#7F00FD"/>
<path d="M407.294 403.051C383.862 379.619 383.862 341.63 407.294 318.198L449.72 275.772C496.583 228.909 572.563 228.909 619.426 275.772L670.337 326.683C704.278 360.625 721.249 360.625 721.249 360.625C721.249 360.625 704.278 360.625 670.337 394.566L619.426 445.477C572.563 492.34 496.583 492.34 449.72 445.477L407.294 403.051Z" fill="#7F00FD"/>
<path d="M313.955 318.198C337.387 341.63 337.387 379.619 313.955 403.051L271.529 445.477C224.666 492.34 148.686 492.34 101.823 445.477L50.9117 394.566C16.9706 360.625 2.43187e-05 360.625 2.43187e-05 360.625C2.43187e-05 360.625 16.9706 360.625 50.9117 326.683L101.823 275.772C148.686 228.909 224.666 228.909 271.529 275.772L313.955 318.198Z" fill="#7F00FD"/>
<path d="M318.198 313.955C341.629 337.387 379.619 337.387 403.05 313.955L445.477 271.529C492.34 224.666 492.34 148.686 445.477 101.823L394.565 50.9117C360.624 16.9706 360.624 9.29832e-06 360.624 9.29832e-06C360.624 9.29832e-06 360.624 16.9706 326.683 50.9117L275.771 101.823C228.908 148.686 228.908 224.666 275.771 271.529L318.198 313.955Z" fill="#7F00FD"/>
</svg>
