<svg width="58" height="48" viewBox="0 0 581 480" fill="none" xmlns="http://www.w3.org/2000/svg">
    <rect x="200" y="150" width="180" height="180" fill="white"/>
    <path d="M226.4 240C261.747 240 290.4 211.346 290.4 176L290.4 128C290.4 57.3076 233.093 -1.13863e-06 162.4 -2.54321e-06L70.4004 -4.37114e-06L0.000390101 -5.7699e-06C0.000390101 -5.7699e-06 26.4004 -5.24537e-06 26.4004 40C26.4004 53.6874 26.4004 81.4257 26.4004 111.996C26.4004 182.689 83.7079 240 154.4 240L226.4 240Z" fill="#7F00FD"/>
    <path d="M354.4 240C319.054 240 290.4 211.346 290.4 176L290.4 128C290.4 57.3076 347.708 -1.13863e-06 418.4 -2.54321e-06L510.4 -4.37114e-06L580.8 -5.7699e-06C580.8 -5.7699e-06 554.4 -5.24537e-06 554.4 40C554.4 53.6874 554.4 81.4257 554.4 111.996C554.4 182.689 497.093 240 426.4 240L354.4 240Z" fill="#7F00FD"/>
    <path d="M226.4 240C261.747 240 290.4 268.654 290.4 304L290.4 352C290.4 422.692 233.093 480 162.4 480L70.4004 480L0.000390101 480C0.000390101 480 26.4004 480 26.4004 440C26.4004 426.313 26.4004 398.574 26.4004 368.004C26.4004 297.311 83.7079 240 154.4 240L226.4 240Z" fill="#7F00FD"/>
    <path d="M354.4 240C319.054 240 290.4 268.654 290.4 304L290.4 352C290.4 422.692 347.708 480 418.4 480L510.4 480L580.8 480C580.8 480 554.4 480 554.4 440C554.4 426.313 554.4 398.574 554.4 368.004C554.4 297.311 497.093 240 426.4 240L354.4 240Z" fill="#7F00FD"/>
</svg>